<svg xmlns="http://www.w3.org/2000/svg" viewBox="0 0 512 512" width="100%" height="100%">
  <defs>
    <radialGradient id="oceanGlow" cx="50%" cy="50%" r="50%">
      <stop offset="0%" stop-color="#145eff"/>
      <stop offset="65%" stop-color="#0832a8"/>
      <stop offset="100%" stop-color="#04144e"/>
    </radialGradient>
  </defs>

  <circle cx="256" cy="256" r="248" fill="#070d1a"/>

  <path d="M 160 445 A 215 215 0 1 1 352 445" fill="none" stroke="#005df8" stroke-width="14" stroke-linecap="round"/>

  <circle cx="256" cy="235" r="170" fill="url(#oceanGlow)"/>

  <g fill="#021345">
    <path d="M 175 90 C 185 85, 205 75, 220 80 C 215 95, 225 105, 235 100 C 245 95, 255 105, 260 115 C 240 120, 230 130, 220 125 C 210 145, 180 155, 170 170 C 160 185, 140 200, 150 215 C 160 230, 150 240, 140 250 C 125 245, 115 230, 110 220 C 100 215, 95 200, 105 185 C 115 170, 105 150, 115 130 C 125 110, 140 100, 150 115 C 160 130, 170 115, 175 90 Z"/>
    <path d="M 230 75 C 240 70, 250 80, 245 90 C 235 95, 225 85, 230 75 Z"/>
    
    <path d="M 140 260 C 150 270, 165 265, 170 280 C 175 295, 190 300, 185 315 C 180 330, 195 350, 190 365 C 185 380, 175 390, 165 375 C 155 360, 145 340, 150 325 C 155 310, 140 295, 135 280 C 130 265, 135 255, 140 260 Z"/>
    <path d="M 155 240 C 165 245, 160 255, 150 250 C 145 245, 150 235, 155 240 Z"/>

    <path d="M 275 105 C 290 100, 310 95, 330 105 C 345 115, 370 110, 390 120 C 405 130, 420 145, 415 160 C 410 175, 400 165, 390 175 C 380 185, 370 175, 360 180 C 350 185, 335 170, 325 180 C 315 190, 305 180, 295 190 C 285 200, 275 190, 270 180 C 265 170, 255 160, 260 145 C 265 130, 255 120, 265 115 C 270 110, 270 105, 275 105 Z"/>
    <path d="M 285 125 C 295 120, 300 130, 290 135 C 280 140, 275 130, 285 125 Z"/>

    <path d="M 290 205 C 310 195, 330 200, 345 210 C 360 220, 375 215, 385 230 C 395 245, 380 255, 375 270 C 370 285, 360 300, 355 315 C 350 330, 355 345, 345 340 C 335 335, 330 315, 320 300 C 310 285, 295 275, 285 260 C 275 245, 270 225, 280 215 C 285 210, 285 205, 290 205 Z"/>
    <path d="M 370 205 C 380 215, 395 220, 400 235 C 405 250, 395 265, 390 250 C 385 235, 375 225, 365 215 C 360 210, 365 200, 370 205 Z"/>
    <path d="M 385 305 C 390 310, 385 320, 380 315 C 375 310, 380 300, 385 305 Z"/>
  </g>

  <path d="M 215 300 A 48 48 0 0 1 297 300" fill="none" stroke="#2583ff" stroke-width="10" stroke-linecap="round"/>
  <path d="M 185 335 A 90 90 0 0 1 327 335" fill="none" stroke="#2583ff" stroke-width="10" stroke-linecap="round"/>
  <path d="M 155 370 A 130 130 0 0 1 357 370" fill="none" stroke="#2583ff" stroke-width="10" stroke-linecap="round"/>

  <circle cx="256" cy="270" r="14" fill="#ffffff"/>
  
  <path d="M 248 280 L 205 450 M 264 280 L 307 450" stroke="#ffffff" stroke-width="10" stroke-linecap="round"/>
  
  <line x1="219" y1="395" x2="293" y2="395" stroke="#ffffff" stroke-width="8"/>
  <line x1="233" y1="340" x2="279" y2="340" stroke="#ffffff" stroke-width="8"/>
  
  <path d="M 209 438 L 293 395 M 303 438 L 219 395" stroke="#ffffff" stroke-width="8"/>
  <path d="M 219 395 L 279 340 M 293 395 L 233 340" stroke="#ffffff" stroke-width="8"/>
  <path d="M 233 340 L 256 288 M 279 340 L 256 288" stroke="#ffffff" stroke-width="8" stroke-linecap="round"/>
</svg>
